%TF.GenerationSoftware,KiCad,Pcbnew,(5.99.0-11177-g6c67dfa032)*%
%TF.CreationDate,2021-07-15T10:53:04+10:00*%
%TF.ProjectId,4x8x8 LED Matrix Clock,34783878-3820-44c4-9544-204d61747269,rev?*%
%TF.SameCoordinates,Original*%
%TF.FileFunction,Profile,NP*%
%FSLAX46Y46*%
G04 Gerber Fmt 4.6, Leading zero omitted, Abs format (unit mm)*
G04 Created by KiCad (PCBNEW (5.99.0-11177-g6c67dfa032)) date 2021-07-15 10:53:04*
%MOMM*%
%LPD*%
G01*
G04 APERTURE LIST*
%TA.AperFunction,Profile*%
%ADD10C,0.100000*%
%TD*%
G04 APERTURE END LIST*
D10*
X189230000Y-50165000D02*
G75*
G02*
X190500000Y-51435000I0J-1270000D01*
G01*
X189230000Y-55880000D02*
G75*
G03*
X190500000Y-54610000I0J1270000D01*
G01*
X167640000Y-57150000D02*
G75*
G02*
X168910000Y-55880000I1270000J0D01*
G01*
X168910000Y-93980000D02*
G75*
G02*
X167640000Y-92710000I0J1270000D01*
G01*
X190500000Y-95250000D02*
G75*
G03*
X189230000Y-93980000I-1270000J0D01*
G01*
X189230000Y-100965000D02*
G75*
G03*
X190500000Y-99695000I0J1270000D01*
G01*
X145415000Y-102235000D02*
G75*
G02*
X146685000Y-100965000I1270000J0D01*
G01*
X144145000Y-109855000D02*
G75*
G03*
X145415000Y-108585000I0J1270000D01*
G01*
X121285000Y-109855000D02*
G75*
G02*
X120015000Y-108585000I0J1270000D01*
G01*
X120015000Y-102235000D02*
G75*
G03*
X118745000Y-100965000I-1270000J0D01*
G01*
X76835000Y-100965000D02*
G75*
G02*
X75565000Y-99695000I0J1270000D01*
G01*
X75565000Y-95250000D02*
G75*
G02*
X76835000Y-93980000I1270000J0D01*
G01*
X100330000Y-93980000D02*
G75*
G03*
X101600000Y-92710000I0J1270000D01*
G01*
X101600000Y-57150000D02*
G75*
G03*
X100330000Y-55880000I-1270000J0D01*
G01*
X76835000Y-55880000D02*
G75*
G02*
X75565000Y-54610000I0J1270000D01*
G01*
X75565000Y-51435000D02*
G75*
G02*
X76835000Y-50165000I1270000J0D01*
G01*
X190500000Y-54610000D02*
X190500000Y-51435000D01*
X168910000Y-55880000D02*
X189230000Y-55880000D01*
X167640000Y-92710000D02*
X167640000Y-57150000D01*
X189230000Y-93980000D02*
X168910000Y-93980000D01*
X190500000Y-99695000D02*
X190500000Y-95250000D01*
X146685000Y-100965000D02*
X189230000Y-100965000D01*
X145415000Y-108585000D02*
X145415000Y-102235000D01*
X140970000Y-109855000D02*
X144145000Y-109855000D01*
X121285000Y-109855000D02*
X140970000Y-109855000D01*
X120015000Y-102235000D02*
X120015000Y-108585000D01*
X76835000Y-100965000D02*
X118745000Y-100965000D01*
X75565000Y-95250000D02*
X75565000Y-99695000D01*
X100330000Y-93980000D02*
X76835000Y-93980000D01*
X101600000Y-57150000D02*
X101600000Y-92710000D01*
X76835000Y-55880000D02*
X100330000Y-55880000D01*
X75565000Y-51435000D02*
X75565000Y-54610000D01*
X189230000Y-50165000D02*
X76835000Y-50165000D01*
M02*
