%TF.GenerationSoftware,KiCad,Pcbnew,(5.99.0-11177-g6c67dfa032)*%
%TF.CreationDate,2021-07-15T10:53:04+10:00*%
%TF.ProjectId,4x8x8 LED Matrix Clock,34783878-3820-44c4-9544-204d61747269,rev?*%
%TF.SameCoordinates,Original*%
%TF.FileFunction,Soldermask,Bot*%
%TF.FilePolarity,Negative*%
%FSLAX46Y46*%
G04 Gerber Fmt 4.6, Leading zero omitted, Abs format (unit mm)*
G04 Created by KiCad (PCBNEW (5.99.0-11177-g6c67dfa032)) date 2021-07-15 10:53:04*
%MOMM*%
%LPD*%
G01*
G04 APERTURE LIST*
G04 Aperture macros list*
%AMRoundRect*
0 Rectangle with rounded corners*
0 $1 Rounding radius*
0 $2 $3 $4 $5 $6 $7 $8 $9 X,Y pos of 4 corners*
0 Add a 4 corners polygon primitive as box body*
4,1,4,$2,$3,$4,$5,$6,$7,$8,$9,$2,$3,0*
0 Add four circle primitives for the rounded corners*
1,1,$1+$1,$2,$3*
1,1,$1+$1,$4,$5*
1,1,$1+$1,$6,$7*
1,1,$1+$1,$8,$9*
0 Add four rect primitives between the rounded corners*
20,1,$1+$1,$2,$3,$4,$5,0*
20,1,$1+$1,$4,$5,$6,$7,0*
20,1,$1+$1,$6,$7,$8,$9,0*
20,1,$1+$1,$8,$9,$2,$3,0*%
G04 Aperture macros list end*
%ADD10C,1.524000*%
%ADD11R,1.308000X1.308000*%
%ADD12C,1.308000*%
%ADD13O,2.460000X1.230000*%
%ADD14R,1.508000X1.508000*%
%ADD15C,1.508000*%
%ADD16C,1.400000*%
%ADD17O,1.400000X1.400000*%
%ADD18O,1.700000X1.700000*%
%ADD19R,1.700000X1.700000*%
%ADD20RoundRect,0.875000X0.875000X-0.875000X0.875000X0.875000X-0.875000X0.875000X-0.875000X-0.875000X0*%
%ADD21RoundRect,0.750000X1.000000X-0.750000X1.000000X0.750000X-1.000000X0.750000X-1.000000X-0.750000X0*%
%ADD22R,3.500000X3.500000*%
%ADD23C,2.500000*%
G04 APERTURE END LIST*
D10*
%TO.C,U1*%
X126460000Y-81375000D03*
X126460000Y-78835000D03*
X115030000Y-92805000D03*
X117570000Y-92805000D03*
X120110000Y-92805000D03*
X122650000Y-92805000D03*
X125190000Y-92805000D03*
X127730000Y-92805000D03*
X129000000Y-90265000D03*
X129000000Y-87725000D03*
X129000000Y-85185000D03*
X129000000Y-82645000D03*
X129000000Y-80105000D03*
X129000000Y-77565000D03*
X129000000Y-75025000D03*
X129000000Y-72485000D03*
X129000000Y-69945000D03*
X129000000Y-67405000D03*
X129000000Y-64865000D03*
X129000000Y-62325000D03*
X126460000Y-62325000D03*
X123920000Y-62325000D03*
X121380000Y-62325000D03*
X113760000Y-62325000D03*
X113760000Y-64865000D03*
X113760000Y-67405000D03*
X113760000Y-69945000D03*
X113760000Y-72485000D03*
X113760000Y-75025000D03*
X113760000Y-77565000D03*
X113760000Y-80105000D03*
X113760000Y-82645000D03*
X113760000Y-85185000D03*
X113760000Y-87725000D03*
X113760000Y-90265000D03*
%TD*%
D11*
%TO.C,S3*%
X152704800Y-66211200D03*
D12*
X152704800Y-64211200D03*
X152704800Y-62211200D03*
D13*
X152704800Y-68411200D03*
X152704800Y-60011200D03*
%TD*%
D14*
%TO.C,S2*%
X134358000Y-103922000D03*
D15*
X140858000Y-103922000D03*
X134358000Y-108422000D03*
X140858000Y-108422000D03*
%TD*%
D14*
%TO.C,S1*%
X124512000Y-103922000D03*
D15*
X131012000Y-103922000D03*
X124512000Y-108422000D03*
X131012000Y-108422000D03*
%TD*%
D16*
%TO.C,R2*%
X135991600Y-87477600D03*
D17*
X135991600Y-79857600D03*
%TD*%
D16*
%TO.C,R1*%
X141579600Y-87579200D03*
D17*
X141579600Y-79959200D03*
%TD*%
D18*
%TO.C,J9*%
X177596800Y-52527200D03*
X180136800Y-52527200D03*
X182676800Y-52527200D03*
X185216800Y-52527200D03*
D19*
X187756800Y-52527200D03*
%TD*%
D18*
%TO.C,J8*%
X177596800Y-98298000D03*
X180136800Y-98298000D03*
X182676800Y-98298000D03*
X185216800Y-98298000D03*
D19*
X187756800Y-98298000D03*
%TD*%
D18*
%TO.C,J7*%
X144576800Y-52527200D03*
X147116800Y-52527200D03*
X149656800Y-52527200D03*
X152196800Y-52527200D03*
D19*
X154736800Y-52527200D03*
%TD*%
%TO.C,J6*%
X154736800Y-98298000D03*
D18*
X152196800Y-98298000D03*
X149656800Y-98298000D03*
X147116800Y-98298000D03*
X144576800Y-98298000D03*
%TD*%
D19*
%TO.C,J5*%
X121716800Y-52527200D03*
D18*
X119176800Y-52527200D03*
X116636800Y-52527200D03*
X114096800Y-52527200D03*
X111556800Y-52527200D03*
%TD*%
D19*
%TO.C,J4*%
X121716800Y-98298000D03*
D18*
X119176800Y-98298000D03*
X116636800Y-98298000D03*
X114096800Y-98298000D03*
X111556800Y-98298000D03*
%TD*%
%TO.C,J3*%
X78486000Y-52527200D03*
X81026000Y-52527200D03*
X83566000Y-52527200D03*
X86106000Y-52527200D03*
D19*
X88646000Y-52527200D03*
%TD*%
D20*
%TO.C,J2*%
X136277700Y-63395600D03*
D21*
X140977700Y-66395600D03*
D22*
X140977700Y-60395600D03*
%TD*%
D19*
%TO.C,J1*%
X88646000Y-98298000D03*
D18*
X86106000Y-98298000D03*
X83566000Y-98298000D03*
X81026000Y-98298000D03*
X78486000Y-98298000D03*
%TD*%
D23*
%TO.C,H4*%
X106172000Y-86360000D03*
%TD*%
%TO.C,H3*%
X160528000Y-60960000D03*
%TD*%
%TO.C,H2*%
X160528000Y-86360000D03*
%TD*%
%TO.C,H1*%
X106172000Y-60960000D03*
%TD*%
M02*
