%TF.GenerationSoftware,KiCad,Pcbnew,(5.99.0-11177-g6c67dfa032)*%
%TF.CreationDate,2021-07-15T10:53:03+10:00*%
%TF.ProjectId,4x8x8 LED Matrix Clock,34783878-3820-44c4-9544-204d61747269,rev?*%
%TF.SameCoordinates,Original*%
%TF.FileFunction,Legend,Top*%
%TF.FilePolarity,Positive*%
%FSLAX46Y46*%
G04 Gerber Fmt 4.6, Leading zero omitted, Abs format (unit mm)*
G04 Created by KiCad (PCBNEW (5.99.0-11177-g6c67dfa032)) date 2021-07-15 10:53:03*
%MOMM*%
%LPD*%
G01*
G04 APERTURE LIST*
%ADD10C,0.150000*%
%ADD11C,0.127000*%
%ADD12C,0.200000*%
%ADD13C,0.120000*%
G04 APERTURE END LIST*
D10*
X136001333Y-102560380D02*
X136001333Y-101560380D01*
X136334666Y-102274666D01*
X136668000Y-101560380D01*
X136668000Y-102560380D01*
X137287047Y-102560380D02*
X137191809Y-102512761D01*
X137144190Y-102465142D01*
X137096571Y-102369904D01*
X137096571Y-102084190D01*
X137144190Y-101988952D01*
X137191809Y-101941333D01*
X137287047Y-101893714D01*
X137429904Y-101893714D01*
X137525142Y-101941333D01*
X137572761Y-101988952D01*
X137620380Y-102084190D01*
X137620380Y-102369904D01*
X137572761Y-102465142D01*
X137525142Y-102512761D01*
X137429904Y-102560380D01*
X137287047Y-102560380D01*
X138477523Y-102560380D02*
X138477523Y-101560380D01*
X138477523Y-102512761D02*
X138382285Y-102560380D01*
X138191809Y-102560380D01*
X138096571Y-102512761D01*
X138048952Y-102465142D01*
X138001333Y-102369904D01*
X138001333Y-102084190D01*
X138048952Y-101988952D01*
X138096571Y-101941333D01*
X138191809Y-101893714D01*
X138382285Y-101893714D01*
X138477523Y-101941333D01*
X139334666Y-102512761D02*
X139239428Y-102560380D01*
X139048952Y-102560380D01*
X138953714Y-102512761D01*
X138906095Y-102417523D01*
X138906095Y-102036571D01*
X138953714Y-101941333D01*
X139048952Y-101893714D01*
X139239428Y-101893714D01*
X139334666Y-101941333D01*
X139382285Y-102036571D01*
X139382285Y-102131809D01*
X138906095Y-102227047D01*
X126523904Y-102560380D02*
X126190571Y-102084190D01*
X125952476Y-102560380D02*
X125952476Y-101560380D01*
X126333428Y-101560380D01*
X126428666Y-101608000D01*
X126476285Y-101655619D01*
X126523904Y-101750857D01*
X126523904Y-101893714D01*
X126476285Y-101988952D01*
X126428666Y-102036571D01*
X126333428Y-102084190D01*
X125952476Y-102084190D01*
X127333428Y-102512761D02*
X127238190Y-102560380D01*
X127047714Y-102560380D01*
X126952476Y-102512761D01*
X126904857Y-102417523D01*
X126904857Y-102036571D01*
X126952476Y-101941333D01*
X127047714Y-101893714D01*
X127238190Y-101893714D01*
X127333428Y-101941333D01*
X127381047Y-102036571D01*
X127381047Y-102131809D01*
X126904857Y-102227047D01*
X127762000Y-102512761D02*
X127857238Y-102560380D01*
X128047714Y-102560380D01*
X128142952Y-102512761D01*
X128190571Y-102417523D01*
X128190571Y-102369904D01*
X128142952Y-102274666D01*
X128047714Y-102227047D01*
X127904857Y-102227047D01*
X127809619Y-102179428D01*
X127762000Y-102084190D01*
X127762000Y-102036571D01*
X127809619Y-101941333D01*
X127904857Y-101893714D01*
X128047714Y-101893714D01*
X128142952Y-101941333D01*
X129000095Y-102512761D02*
X128904857Y-102560380D01*
X128714380Y-102560380D01*
X128619142Y-102512761D01*
X128571523Y-102417523D01*
X128571523Y-102036571D01*
X128619142Y-101941333D01*
X128714380Y-101893714D01*
X128904857Y-101893714D01*
X129000095Y-101941333D01*
X129047714Y-102036571D01*
X129047714Y-102131809D01*
X128571523Y-102227047D01*
X129333428Y-101893714D02*
X129714380Y-101893714D01*
X129476285Y-101560380D02*
X129476285Y-102417523D01*
X129523904Y-102512761D01*
X129619142Y-102560380D01*
X129714380Y-102560380D01*
%TO.C,S2*%
X142214666Y-107217333D02*
X142314666Y-107250666D01*
X142481333Y-107250666D01*
X142548000Y-107217333D01*
X142581333Y-107184000D01*
X142614666Y-107117333D01*
X142614666Y-107050666D01*
X142581333Y-106984000D01*
X142548000Y-106950666D01*
X142481333Y-106917333D01*
X142348000Y-106884000D01*
X142281333Y-106850666D01*
X142248000Y-106817333D01*
X142214666Y-106750666D01*
X142214666Y-106684000D01*
X142248000Y-106617333D01*
X142281333Y-106584000D01*
X142348000Y-106550666D01*
X142514666Y-106550666D01*
X142614666Y-106584000D01*
X142881333Y-106617333D02*
X142914666Y-106584000D01*
X142981333Y-106550666D01*
X143148000Y-106550666D01*
X143214666Y-106584000D01*
X143248000Y-106617333D01*
X143281333Y-106684000D01*
X143281333Y-106750666D01*
X143248000Y-106850666D01*
X142848000Y-107250666D01*
X143281333Y-107250666D01*
%TO.C,S1*%
X122148666Y-107217333D02*
X122248666Y-107250666D01*
X122415333Y-107250666D01*
X122482000Y-107217333D01*
X122515333Y-107184000D01*
X122548666Y-107117333D01*
X122548666Y-107050666D01*
X122515333Y-106984000D01*
X122482000Y-106950666D01*
X122415333Y-106917333D01*
X122282000Y-106884000D01*
X122215333Y-106850666D01*
X122182000Y-106817333D01*
X122148666Y-106750666D01*
X122148666Y-106684000D01*
X122182000Y-106617333D01*
X122215333Y-106584000D01*
X122282000Y-106550666D01*
X122448666Y-106550666D01*
X122548666Y-106584000D01*
X123215333Y-107250666D02*
X122815333Y-107250666D01*
X123015333Y-107250666D02*
X123015333Y-106550666D01*
X122948666Y-106650666D01*
X122882000Y-106717333D01*
X122815333Y-106750666D01*
%TO.C,J9*%
X174876666Y-52760533D02*
X175376666Y-52760533D01*
X175476666Y-52793866D01*
X175543333Y-52860533D01*
X175576666Y-52960533D01*
X175576666Y-53027200D01*
X175576666Y-52393866D02*
X175576666Y-52260533D01*
X175543333Y-52193866D01*
X175510000Y-52160533D01*
X175410000Y-52093866D01*
X175276666Y-52060533D01*
X175010000Y-52060533D01*
X174943333Y-52093866D01*
X174910000Y-52127200D01*
X174876666Y-52193866D01*
X174876666Y-52327200D01*
X174910000Y-52393866D01*
X174943333Y-52427200D01*
X175010000Y-52460533D01*
X175176666Y-52460533D01*
X175243333Y-52427200D01*
X175276666Y-52393866D01*
X175310000Y-52327200D01*
X175310000Y-52193866D01*
X175276666Y-52127200D01*
X175243333Y-52093866D01*
X175176666Y-52060533D01*
X180283142Y-55225904D02*
X179902190Y-55225904D01*
X179902190Y-54425904D01*
X180549809Y-54806857D02*
X180816476Y-54806857D01*
X180930761Y-55225904D02*
X180549809Y-55225904D01*
X180549809Y-54425904D01*
X180930761Y-54425904D01*
X181273619Y-55225904D02*
X181273619Y-54425904D01*
X181464095Y-54425904D01*
X181578380Y-54464000D01*
X181654571Y-54540190D01*
X181692666Y-54616380D01*
X181730761Y-54768761D01*
X181730761Y-54883047D01*
X181692666Y-55035428D01*
X181654571Y-55111619D01*
X181578380Y-55187809D01*
X181464095Y-55225904D01*
X181273619Y-55225904D01*
X182416476Y-54692571D02*
X182416476Y-55225904D01*
X182226000Y-54387809D02*
X182035523Y-54959238D01*
X182530761Y-54959238D01*
X182645047Y-55302095D02*
X183254571Y-55302095D01*
X183597428Y-54425904D02*
X183749809Y-54425904D01*
X183826000Y-54464000D01*
X183902190Y-54540190D01*
X183940285Y-54692571D01*
X183940285Y-54959238D01*
X183902190Y-55111619D01*
X183826000Y-55187809D01*
X183749809Y-55225904D01*
X183597428Y-55225904D01*
X183521238Y-55187809D01*
X183445047Y-55111619D01*
X183406952Y-54959238D01*
X183406952Y-54692571D01*
X183445047Y-54540190D01*
X183521238Y-54464000D01*
X183597428Y-54425904D01*
X184283142Y-54425904D02*
X184283142Y-55073523D01*
X184321238Y-55149714D01*
X184359333Y-55187809D01*
X184435523Y-55225904D01*
X184587904Y-55225904D01*
X184664095Y-55187809D01*
X184702190Y-55149714D01*
X184740285Y-55073523D01*
X184740285Y-54425904D01*
X185006952Y-54425904D02*
X185464095Y-54425904D01*
X185235523Y-55225904D02*
X185235523Y-54425904D01*
%TO.C,J8*%
X174876666Y-98531333D02*
X175376666Y-98531333D01*
X175476666Y-98564666D01*
X175543333Y-98631333D01*
X175576666Y-98731333D01*
X175576666Y-98798000D01*
X175176666Y-98098000D02*
X175143333Y-98164666D01*
X175110000Y-98198000D01*
X175043333Y-98231333D01*
X175010000Y-98231333D01*
X174943333Y-98198000D01*
X174910000Y-98164666D01*
X174876666Y-98098000D01*
X174876666Y-97964666D01*
X174910000Y-97898000D01*
X174943333Y-97864666D01*
X175010000Y-97831333D01*
X175043333Y-97831333D01*
X175110000Y-97864666D01*
X175143333Y-97898000D01*
X175176666Y-97964666D01*
X175176666Y-98098000D01*
X175210000Y-98164666D01*
X175243333Y-98198000D01*
X175310000Y-98231333D01*
X175443333Y-98231333D01*
X175510000Y-98198000D01*
X175543333Y-98164666D01*
X175576666Y-98098000D01*
X175576666Y-97964666D01*
X175543333Y-97898000D01*
X175510000Y-97864666D01*
X175443333Y-97831333D01*
X175310000Y-97831333D01*
X175243333Y-97864666D01*
X175210000Y-97898000D01*
X175176666Y-97964666D01*
X180816476Y-96373904D02*
X180435523Y-96373904D01*
X180435523Y-95573904D01*
X181083142Y-95954857D02*
X181349809Y-95954857D01*
X181464095Y-96373904D02*
X181083142Y-96373904D01*
X181083142Y-95573904D01*
X181464095Y-95573904D01*
X181806952Y-96373904D02*
X181806952Y-95573904D01*
X181997428Y-95573904D01*
X182111714Y-95612000D01*
X182187904Y-95688190D01*
X182226000Y-95764380D01*
X182264095Y-95916761D01*
X182264095Y-96031047D01*
X182226000Y-96183428D01*
X182187904Y-96259619D01*
X182111714Y-96335809D01*
X181997428Y-96373904D01*
X181806952Y-96373904D01*
X182949809Y-95840571D02*
X182949809Y-96373904D01*
X182759333Y-95535809D02*
X182568857Y-96107238D01*
X183064095Y-96107238D01*
X183178380Y-96450095D02*
X183787904Y-96450095D01*
X183978380Y-96373904D02*
X183978380Y-95573904D01*
X184359333Y-96373904D02*
X184359333Y-95573904D01*
X184816476Y-96373904D01*
X184816476Y-95573904D01*
%TO.C,J7*%
X156683466Y-52760533D02*
X157183466Y-52760533D01*
X157283466Y-52793866D01*
X157350133Y-52860533D01*
X157383466Y-52960533D01*
X157383466Y-53027200D01*
X156683466Y-52493866D02*
X156683466Y-52027200D01*
X157383466Y-52327200D01*
X147263142Y-55225904D02*
X146882190Y-55225904D01*
X146882190Y-54425904D01*
X147529809Y-54806857D02*
X147796476Y-54806857D01*
X147910761Y-55225904D02*
X147529809Y-55225904D01*
X147529809Y-54425904D01*
X147910761Y-54425904D01*
X148253619Y-55225904D02*
X148253619Y-54425904D01*
X148444095Y-54425904D01*
X148558380Y-54464000D01*
X148634571Y-54540190D01*
X148672666Y-54616380D01*
X148710761Y-54768761D01*
X148710761Y-54883047D01*
X148672666Y-55035428D01*
X148634571Y-55111619D01*
X148558380Y-55187809D01*
X148444095Y-55225904D01*
X148253619Y-55225904D01*
X148977428Y-54425904D02*
X149472666Y-54425904D01*
X149206000Y-54730666D01*
X149320285Y-54730666D01*
X149396476Y-54768761D01*
X149434571Y-54806857D01*
X149472666Y-54883047D01*
X149472666Y-55073523D01*
X149434571Y-55149714D01*
X149396476Y-55187809D01*
X149320285Y-55225904D01*
X149091714Y-55225904D01*
X149015523Y-55187809D01*
X148977428Y-55149714D01*
X149625047Y-55302095D02*
X150234571Y-55302095D01*
X150577428Y-54425904D02*
X150729809Y-54425904D01*
X150806000Y-54464000D01*
X150882190Y-54540190D01*
X150920285Y-54692571D01*
X150920285Y-54959238D01*
X150882190Y-55111619D01*
X150806000Y-55187809D01*
X150729809Y-55225904D01*
X150577428Y-55225904D01*
X150501238Y-55187809D01*
X150425047Y-55111619D01*
X150386952Y-54959238D01*
X150386952Y-54692571D01*
X150425047Y-54540190D01*
X150501238Y-54464000D01*
X150577428Y-54425904D01*
X151263142Y-54425904D02*
X151263142Y-55073523D01*
X151301238Y-55149714D01*
X151339333Y-55187809D01*
X151415523Y-55225904D01*
X151567904Y-55225904D01*
X151644095Y-55187809D01*
X151682190Y-55149714D01*
X151720285Y-55073523D01*
X151720285Y-54425904D01*
X151986952Y-54425904D02*
X152444095Y-54425904D01*
X152215523Y-55225904D02*
X152215523Y-54425904D01*
%TO.C,J6*%
X156683466Y-98531333D02*
X157183466Y-98531333D01*
X157283466Y-98564666D01*
X157350133Y-98631333D01*
X157383466Y-98731333D01*
X157383466Y-98798000D01*
X156683466Y-97898000D02*
X156683466Y-98031333D01*
X156716800Y-98098000D01*
X156750133Y-98131333D01*
X156850133Y-98198000D01*
X156983466Y-98231333D01*
X157250133Y-98231333D01*
X157316800Y-98198000D01*
X157350133Y-98164666D01*
X157383466Y-98098000D01*
X157383466Y-97964666D01*
X157350133Y-97898000D01*
X157316800Y-97864666D01*
X157250133Y-97831333D01*
X157083466Y-97831333D01*
X157016800Y-97864666D01*
X156983466Y-97898000D01*
X156950133Y-97964666D01*
X156950133Y-98098000D01*
X156983466Y-98164666D01*
X157016800Y-98198000D01*
X157083466Y-98231333D01*
X147796476Y-96373904D02*
X147415523Y-96373904D01*
X147415523Y-95573904D01*
X148063142Y-95954857D02*
X148329809Y-95954857D01*
X148444095Y-96373904D02*
X148063142Y-96373904D01*
X148063142Y-95573904D01*
X148444095Y-95573904D01*
X148786952Y-96373904D02*
X148786952Y-95573904D01*
X148977428Y-95573904D01*
X149091714Y-95612000D01*
X149167904Y-95688190D01*
X149206000Y-95764380D01*
X149244095Y-95916761D01*
X149244095Y-96031047D01*
X149206000Y-96183428D01*
X149167904Y-96259619D01*
X149091714Y-96335809D01*
X148977428Y-96373904D01*
X148786952Y-96373904D01*
X149510761Y-95573904D02*
X150006000Y-95573904D01*
X149739333Y-95878666D01*
X149853619Y-95878666D01*
X149929809Y-95916761D01*
X149967904Y-95954857D01*
X150006000Y-96031047D01*
X150006000Y-96221523D01*
X149967904Y-96297714D01*
X149929809Y-96335809D01*
X149853619Y-96373904D01*
X149625047Y-96373904D01*
X149548857Y-96335809D01*
X149510761Y-96297714D01*
X150158380Y-96450095D02*
X150767904Y-96450095D01*
X150958380Y-96373904D02*
X150958380Y-95573904D01*
X151339333Y-96373904D02*
X151339333Y-95573904D01*
X151796476Y-96373904D01*
X151796476Y-95573904D01*
%TO.C,J5*%
X123663466Y-52760533D02*
X124163466Y-52760533D01*
X124263466Y-52793866D01*
X124330133Y-52860533D01*
X124363466Y-52960533D01*
X124363466Y-53027200D01*
X123663466Y-52093866D02*
X123663466Y-52427200D01*
X123996800Y-52460533D01*
X123963466Y-52427200D01*
X123930133Y-52360533D01*
X123930133Y-52193866D01*
X123963466Y-52127200D01*
X123996800Y-52093866D01*
X124063466Y-52060533D01*
X124230133Y-52060533D01*
X124296800Y-52093866D01*
X124330133Y-52127200D01*
X124363466Y-52193866D01*
X124363466Y-52360533D01*
X124330133Y-52427200D01*
X124296800Y-52460533D01*
X114497142Y-55225904D02*
X114116190Y-55225904D01*
X114116190Y-54425904D01*
X114763809Y-54806857D02*
X115030476Y-54806857D01*
X115144761Y-55225904D02*
X114763809Y-55225904D01*
X114763809Y-54425904D01*
X115144761Y-54425904D01*
X115487619Y-55225904D02*
X115487619Y-54425904D01*
X115678095Y-54425904D01*
X115792380Y-54464000D01*
X115868571Y-54540190D01*
X115906666Y-54616380D01*
X115944761Y-54768761D01*
X115944761Y-54883047D01*
X115906666Y-55035428D01*
X115868571Y-55111619D01*
X115792380Y-55187809D01*
X115678095Y-55225904D01*
X115487619Y-55225904D01*
X116249523Y-54502095D02*
X116287619Y-54464000D01*
X116363809Y-54425904D01*
X116554285Y-54425904D01*
X116630476Y-54464000D01*
X116668571Y-54502095D01*
X116706666Y-54578285D01*
X116706666Y-54654476D01*
X116668571Y-54768761D01*
X116211428Y-55225904D01*
X116706666Y-55225904D01*
X116859047Y-55302095D02*
X117468571Y-55302095D01*
X117811428Y-54425904D02*
X117963809Y-54425904D01*
X118040000Y-54464000D01*
X118116190Y-54540190D01*
X118154285Y-54692571D01*
X118154285Y-54959238D01*
X118116190Y-55111619D01*
X118040000Y-55187809D01*
X117963809Y-55225904D01*
X117811428Y-55225904D01*
X117735238Y-55187809D01*
X117659047Y-55111619D01*
X117620952Y-54959238D01*
X117620952Y-54692571D01*
X117659047Y-54540190D01*
X117735238Y-54464000D01*
X117811428Y-54425904D01*
X118497142Y-54425904D02*
X118497142Y-55073523D01*
X118535238Y-55149714D01*
X118573333Y-55187809D01*
X118649523Y-55225904D01*
X118801904Y-55225904D01*
X118878095Y-55187809D01*
X118916190Y-55149714D01*
X118954285Y-55073523D01*
X118954285Y-54425904D01*
X119220952Y-54425904D02*
X119678095Y-54425904D01*
X119449523Y-55225904D02*
X119449523Y-54425904D01*
%TO.C,J4*%
X123663466Y-98531333D02*
X124163466Y-98531333D01*
X124263466Y-98564666D01*
X124330133Y-98631333D01*
X124363466Y-98731333D01*
X124363466Y-98798000D01*
X123896800Y-97898000D02*
X124363466Y-97898000D01*
X123630133Y-98064666D02*
X124130133Y-98231333D01*
X124130133Y-97798000D01*
X114776476Y-96373904D02*
X114395523Y-96373904D01*
X114395523Y-95573904D01*
X115043142Y-95954857D02*
X115309809Y-95954857D01*
X115424095Y-96373904D02*
X115043142Y-96373904D01*
X115043142Y-95573904D01*
X115424095Y-95573904D01*
X115766952Y-96373904D02*
X115766952Y-95573904D01*
X115957428Y-95573904D01*
X116071714Y-95612000D01*
X116147904Y-95688190D01*
X116186000Y-95764380D01*
X116224095Y-95916761D01*
X116224095Y-96031047D01*
X116186000Y-96183428D01*
X116147904Y-96259619D01*
X116071714Y-96335809D01*
X115957428Y-96373904D01*
X115766952Y-96373904D01*
X116528857Y-95650095D02*
X116566952Y-95612000D01*
X116643142Y-95573904D01*
X116833619Y-95573904D01*
X116909809Y-95612000D01*
X116947904Y-95650095D01*
X116986000Y-95726285D01*
X116986000Y-95802476D01*
X116947904Y-95916761D01*
X116490761Y-96373904D01*
X116986000Y-96373904D01*
X117138380Y-96450095D02*
X117747904Y-96450095D01*
X117938380Y-96373904D02*
X117938380Y-95573904D01*
X118319333Y-96373904D02*
X118319333Y-95573904D01*
X118776476Y-96373904D01*
X118776476Y-95573904D01*
%TO.C,J3*%
X90592666Y-52760533D02*
X91092666Y-52760533D01*
X91192666Y-52793866D01*
X91259333Y-52860533D01*
X91292666Y-52960533D01*
X91292666Y-53027200D01*
X90592666Y-52493866D02*
X90592666Y-52060533D01*
X90859333Y-52293866D01*
X90859333Y-52193866D01*
X90892666Y-52127200D01*
X90926000Y-52093866D01*
X90992666Y-52060533D01*
X91159333Y-52060533D01*
X91226000Y-52093866D01*
X91259333Y-52127200D01*
X91292666Y-52193866D01*
X91292666Y-52393866D01*
X91259333Y-52460533D01*
X91226000Y-52493866D01*
X81477142Y-55225904D02*
X81096190Y-55225904D01*
X81096190Y-54425904D01*
X81743809Y-54806857D02*
X82010476Y-54806857D01*
X82124761Y-55225904D02*
X81743809Y-55225904D01*
X81743809Y-54425904D01*
X82124761Y-54425904D01*
X82467619Y-55225904D02*
X82467619Y-54425904D01*
X82658095Y-54425904D01*
X82772380Y-54464000D01*
X82848571Y-54540190D01*
X82886666Y-54616380D01*
X82924761Y-54768761D01*
X82924761Y-54883047D01*
X82886666Y-55035428D01*
X82848571Y-55111619D01*
X82772380Y-55187809D01*
X82658095Y-55225904D01*
X82467619Y-55225904D01*
X83686666Y-55225904D02*
X83229523Y-55225904D01*
X83458095Y-55225904D02*
X83458095Y-54425904D01*
X83381904Y-54540190D01*
X83305714Y-54616380D01*
X83229523Y-54654476D01*
X83839047Y-55302095D02*
X84448571Y-55302095D01*
X84791428Y-54425904D02*
X84943809Y-54425904D01*
X85020000Y-54464000D01*
X85096190Y-54540190D01*
X85134285Y-54692571D01*
X85134285Y-54959238D01*
X85096190Y-55111619D01*
X85020000Y-55187809D01*
X84943809Y-55225904D01*
X84791428Y-55225904D01*
X84715238Y-55187809D01*
X84639047Y-55111619D01*
X84600952Y-54959238D01*
X84600952Y-54692571D01*
X84639047Y-54540190D01*
X84715238Y-54464000D01*
X84791428Y-54425904D01*
X85477142Y-54425904D02*
X85477142Y-55073523D01*
X85515238Y-55149714D01*
X85553333Y-55187809D01*
X85629523Y-55225904D01*
X85781904Y-55225904D01*
X85858095Y-55187809D01*
X85896190Y-55149714D01*
X85934285Y-55073523D01*
X85934285Y-54425904D01*
X86200952Y-54425904D02*
X86658095Y-54425904D01*
X86429523Y-55225904D02*
X86429523Y-54425904D01*
%TO.C,J1*%
X90592666Y-98531333D02*
X91092666Y-98531333D01*
X91192666Y-98564666D01*
X91259333Y-98631333D01*
X91292666Y-98731333D01*
X91292666Y-98798000D01*
X91292666Y-97831333D02*
X91292666Y-98231333D01*
X91292666Y-98031333D02*
X90592666Y-98031333D01*
X90692666Y-98098000D01*
X90759333Y-98164666D01*
X90792666Y-98231333D01*
X81756476Y-96373904D02*
X81375523Y-96373904D01*
X81375523Y-95573904D01*
X82023142Y-95954857D02*
X82289809Y-95954857D01*
X82404095Y-96373904D02*
X82023142Y-96373904D01*
X82023142Y-95573904D01*
X82404095Y-95573904D01*
X82746952Y-96373904D02*
X82746952Y-95573904D01*
X82937428Y-95573904D01*
X83051714Y-95612000D01*
X83127904Y-95688190D01*
X83166000Y-95764380D01*
X83204095Y-95916761D01*
X83204095Y-96031047D01*
X83166000Y-96183428D01*
X83127904Y-96259619D01*
X83051714Y-96335809D01*
X82937428Y-96373904D01*
X82746952Y-96373904D01*
X83966000Y-96373904D02*
X83508857Y-96373904D01*
X83737428Y-96373904D02*
X83737428Y-95573904D01*
X83661238Y-95688190D01*
X83585047Y-95764380D01*
X83508857Y-95802476D01*
X84118380Y-96450095D02*
X84727904Y-96450095D01*
X84918380Y-96373904D02*
X84918380Y-95573904D01*
X85299333Y-96373904D02*
X85299333Y-95573904D01*
X85756476Y-96373904D01*
X85756476Y-95573904D01*
D11*
%TO.C,S2*%
X139778000Y-103172000D02*
X135438000Y-103172000D01*
D12*
X132478000Y-103860000D02*
G75*
G03*
X132478000Y-103860000I-100000J0D01*
G01*
D11*
X140608000Y-105002000D02*
X140608000Y-107342000D01*
X135438000Y-109172000D02*
X139778000Y-109172000D01*
X134608000Y-107342000D02*
X134608000Y-105002000D01*
%TO.C,S1*%
X129932000Y-103172000D02*
X125592000Y-103172000D01*
D12*
X122632000Y-103860000D02*
G75*
G03*
X122632000Y-103860000I-100000J0D01*
G01*
D11*
X130762000Y-105002000D02*
X130762000Y-107342000D01*
X125592000Y-109172000D02*
X129932000Y-109172000D01*
X124762000Y-107342000D02*
X124762000Y-105002000D01*
D13*
%TO.C,J9*%
X189086800Y-51197200D02*
X189086800Y-52527200D01*
X187756800Y-51197200D02*
X189086800Y-51197200D01*
X186486800Y-51197200D02*
X186486800Y-53857200D01*
X186486800Y-53857200D02*
X176266800Y-53857200D01*
X186486800Y-51197200D02*
X176266800Y-51197200D01*
X176266800Y-51197200D02*
X176266800Y-53857200D01*
%TO.C,J8*%
X189086800Y-96968000D02*
X189086800Y-98298000D01*
X187756800Y-96968000D02*
X189086800Y-96968000D01*
X186486800Y-96968000D02*
X186486800Y-99628000D01*
X186486800Y-99628000D02*
X176266800Y-99628000D01*
X186486800Y-96968000D02*
X176266800Y-96968000D01*
X176266800Y-96968000D02*
X176266800Y-99628000D01*
%TO.C,J7*%
X156066800Y-51197200D02*
X156066800Y-52527200D01*
X154736800Y-51197200D02*
X156066800Y-51197200D01*
X153466800Y-51197200D02*
X153466800Y-53857200D01*
X153466800Y-53857200D02*
X143246800Y-53857200D01*
X153466800Y-51197200D02*
X143246800Y-51197200D01*
X143246800Y-51197200D02*
X143246800Y-53857200D01*
%TO.C,J6*%
X143246800Y-96968000D02*
X143246800Y-99628000D01*
X153466800Y-96968000D02*
X143246800Y-96968000D01*
X153466800Y-99628000D02*
X143246800Y-99628000D01*
X153466800Y-96968000D02*
X153466800Y-99628000D01*
X154736800Y-96968000D02*
X156066800Y-96968000D01*
X156066800Y-96968000D02*
X156066800Y-98298000D01*
%TO.C,J5*%
X110226800Y-51197200D02*
X110226800Y-53857200D01*
X120446800Y-51197200D02*
X110226800Y-51197200D01*
X120446800Y-53857200D02*
X110226800Y-53857200D01*
X120446800Y-51197200D02*
X120446800Y-53857200D01*
X121716800Y-51197200D02*
X123046800Y-51197200D01*
X123046800Y-51197200D02*
X123046800Y-52527200D01*
%TO.C,J4*%
X110226800Y-96968000D02*
X110226800Y-99628000D01*
X120446800Y-96968000D02*
X110226800Y-96968000D01*
X120446800Y-99628000D02*
X110226800Y-99628000D01*
X120446800Y-96968000D02*
X120446800Y-99628000D01*
X121716800Y-96968000D02*
X123046800Y-96968000D01*
X123046800Y-96968000D02*
X123046800Y-98298000D01*
%TO.C,J3*%
X89976000Y-51197200D02*
X89976000Y-52527200D01*
X88646000Y-51197200D02*
X89976000Y-51197200D01*
X87376000Y-51197200D02*
X87376000Y-53857200D01*
X87376000Y-53857200D02*
X77156000Y-53857200D01*
X87376000Y-51197200D02*
X77156000Y-51197200D01*
X77156000Y-51197200D02*
X77156000Y-53857200D01*
%TO.C,J1*%
X77156000Y-96968000D02*
X77156000Y-99628000D01*
X87376000Y-96968000D02*
X77156000Y-96968000D01*
X87376000Y-99628000D02*
X77156000Y-99628000D01*
X87376000Y-96968000D02*
X87376000Y-99628000D01*
X88646000Y-96968000D02*
X89976000Y-96968000D01*
X89976000Y-96968000D02*
X89976000Y-98298000D01*
%TD*%
M02*
